<svg width="24" height="24"  viewBox="0 0 24 24" fill="none" xmlns="http://www.w3.org/2000/svg">
<path d="M12.8328 13.2713L12.4231 13.3465V13.7631V13.8462C12.4231 13.9584 12.3785 14.066 12.2992 14.1453C12.2198 14.2247 12.1122 14.2692 12 14.2692C11.8878 14.2692 11.7802 14.2247 11.7008 14.1453C11.6215 14.066 11.5769 13.9584 11.5769 13.8462V12.9231C11.5769 12.8109 11.6215 12.7033 11.7008 12.6239C11.7802 12.5446 11.8878 12.5 12 12.5C13.7139 12.5 15.2692 11.3188 15.2692 9.69231C15.2692 8.06581 13.7139 6.88461 12 6.88461C10.2861 6.88461 8.73077 8.06581 8.73077 9.69231V10.1538C8.73077 10.2661 8.6862 10.3737 8.60686 10.453C8.52751 10.5323 8.4199 10.5769 8.3077 10.5769C8.19549 10.5769 8.08788 10.5323 8.00854 10.453C7.92919 10.3737 7.88462 10.2661 7.88462 10.1538V9.69231C7.88462 7.72628 9.67994 6.03846 12 6.03846C14.3201 6.03846 16.1154 7.72628 16.1154 9.69231C16.1154 11.4157 14.7424 12.9206 12.8328 13.2713ZM12.3385 18.8173L12.5299 19.2792L12.3385 18.8173C12.1769 18.8842 11.999 18.9017 11.8274 18.8676C11.6558 18.8335 11.4982 18.7492 11.3745 18.6255C11.2508 18.5018 11.1665 18.3442 11.1324 18.1726C11.0983 18.001 11.1158 17.8231 11.1827 17.6615C11.2497 17.4998 11.3631 17.3617 11.5085 17.2645C11.654 17.1673 11.825 17.1154 12 17.1154C12.2346 17.1154 12.4596 17.2086 12.6255 17.3745C12.7914 17.5404 12.8846 17.7654 12.8846 18C12.8846 18.175 12.8327 18.346 12.7355 18.4915C12.6383 18.6369 12.5002 18.7503 12.3385 18.8173ZM22.6538 12.0006V12C22.6538 9.89287 22.029 7.83305 20.8584 6.08104C19.6877 4.32902 18.0238 2.96349 16.0771 2.15713C14.1303 1.35076 11.9882 1.13978 9.92154 1.55086C7.8549 1.96195 5.95656 2.97663 4.4666 4.46659C2.97663 5.95656 1.96195 7.85489 1.55087 9.92154C1.13979 11.9882 1.35077 14.1303 2.15713 16.077C2.9635 18.0238 4.32903 19.6877 6.08104 20.8583C7.83306 22.029 9.89287 22.6538 12 22.6538H12.0006C14.825 22.6506 17.5329 21.5272 19.53 19.53C21.5272 17.5328 22.6506 14.825 22.6538 12.0006ZM23.5 12.0005C23.4999 14.2748 22.8254 16.498 21.5619 18.3891C20.2983 20.2802 18.5022 21.7542 16.4009 22.6246C14.2995 23.495 11.9872 23.7228 9.75646 23.279C7.52568 22.8353 5.47658 21.74 3.86828 20.1317C2.25997 18.5234 1.1647 16.4743 0.720975 14.2435C0.277245 12.0128 0.504983 9.70049 1.37539 7.59914C2.2458 5.49779 3.71978 3.70174 5.61095 2.4381C7.50204 1.17451 9.72534 0.500054 11.9997 0.5C15.0488 0.503286 17.972 1.71597 20.128 3.87198C22.2841 6.02805 23.4968 8.95139 23.5 12.0005Z" stroke="url(#paint0_linear_45_52)"/>
<defs>
<linearGradient id="paint0_linear_45_52" x1="12" y1="0" x2="12" y2="24" gradientUnits="userSpaceOnUse">
<stop stop-color="#A3B940"/>
<stop offset="1" stop-color="#39712A"/>
</linearGradient>
</defs>
</svg>
