<svg width="22" height="24" viewBox="0 0 22 24" fill="none" xmlns="http://www.w3.org/2000/svg">
<path d="M9.50375 0.659455C9.92588 0.313993 10.4545 0.125244 11 0.125244C11.5455 0.125244 12.0741 0.313993 12.4963 0.659455L20.7306 7.3732C21.0108 7.60292 21.2364 7.89206 21.3911 8.2197C21.5458 8.54733 21.6257 8.90526 21.625 9.26758V21.4457C21.625 22.7876 20.555 23.8751 19.2344 23.8751H15.8906C14.57 23.8751 13.5 22.7876 13.5 21.4457V15.6795C13.5 15.232 13.1438 14.8695 12.7031 14.8695H9.29688C8.85688 14.8695 8.5 15.232 8.5 15.6795V21.4457C8.5 22.7876 7.43 23.8751 6.10938 23.8751H2.76563C1.44563 23.8751 0.375004 22.7876 0.375004 21.4457V9.26758C0.374327 8.90526 0.454222 8.54733 0.608906 8.2197C0.76359 7.89206 0.989192 7.60292 1.26938 7.3732L9.50375 0.659455ZM11.4988 1.92258C11.358 1.80743 11.1818 1.74451 11 1.74451C10.8182 1.74451 10.642 1.80743 10.5013 1.92258L2.26688 8.6357C2.17332 8.71222 2.098 8.80865 2.04643 8.91796C1.99486 9.02727 1.96832 9.14671 1.96875 9.26758V21.4457C1.96875 21.8932 2.325 22.2557 2.76563 22.2557H6.10938C6.54938 22.2557 6.90625 21.8932 6.90625 21.4457V15.6795C6.90625 14.3376 7.97688 13.2501 9.29688 13.2501H12.7031C14.0231 13.2501 15.0938 14.3376 15.0938 15.6795V21.4457C15.0938 21.8932 15.45 22.2557 15.8906 22.2557H19.2344C19.6744 22.2557 20.0313 21.8932 20.0313 21.4457V9.26758C20.0316 9.14682 20.005 9.0275 19.9534 8.9183C19.9019 8.80911 19.8266 8.71278 19.7331 8.63633L11.4988 1.92258Z" fill="url(#paint0_linear_2032_141)"/>
<defs>
<linearGradient id="paint0_linear_2032_141" x1="11" y1="0.125244" x2="11" y2="23.8751" gradientUnits="userSpaceOnUse">
<stop stop-color="#A3B940"/>
<stop offset="1" stop-color="#39712A"/>
</linearGradient>
</defs>
</svg>
