<svg width="24" height="24" viewBox="0 0 24 24" fill="none" xmlns="http://www.w3.org/2000/svg">
<g clip-path="url(#clip0_2350_335)">
<path d="M0 6.03925V8.66659H3.752L0 6.03925ZM3.10933 20.6666H8.66667V16.7753L3.10933 20.6666ZM15.3333 16.7759V20.6666H20.89L15.3333 16.7759ZM0 15.3333V17.9606L3.75333 15.3333H0ZM20.8913 3.33325H15.3333V7.22459L20.8913 3.33325ZM24 17.9613V15.3333H20.246L24 17.9613ZM24 8.66659V6.03925L20.2473 8.66659H24ZM8.66667 3.33325H3.10933L8.66667 7.22459V3.33325Z" fill="#00247D"/>
<path d="M16.76 15.3332L23.2347 19.8672C23.5503 19.5411 23.7775 19.1397 23.8947 18.7012L19.0847 15.3332H16.76ZM8.66667 15.3332H7.23933L0.765332 19.8666C1.11267 20.2199 1.558 20.4726 2.05733 20.5899L8.66667 15.9619V15.3332ZM15.3333 8.66658H16.7607L23.2347 4.13325C22.8811 3.77511 22.4334 3.52434 21.9433 3.40991L15.3333 8.03791V8.66658ZM7.23933 8.66658L0.765332 4.13325C0.449444 4.45934 0.222041 4.86068 0.104666 5.29925L4.91467 8.66658H7.23933Z" fill="#CF1B2B"/>
<path d="M24 13.9999H14V20.6666H15.3333V16.7759L20.89 20.6666H21.3333C21.6875 20.6663 22.038 20.5954 22.3644 20.4582C22.6909 20.3209 22.9867 20.1201 23.2347 19.8673L16.76 15.3333H19.0847L23.8947 18.7013C23.9567 18.4766 24 18.2439 24 17.9999V17.9613L20.246 15.3333H24V13.9999ZM0 13.9999V15.3333H3.75333L0 17.9606V17.9999C0 18.7273 0.292667 19.3853 0.765333 19.8666L7.23933 15.3333H8.66667V15.9619L2.05733 20.5893C2.25333 20.6359 2.456 20.6666 2.66667 20.6666H3.10933L8.66667 16.7753V20.6666H10V13.9999H0ZM24 5.99992C24.0006 5.3012 23.7256 4.63043 23.2347 4.13325L16.7607 8.66659H15.3333V8.03792L21.9433 3.40992C21.7436 3.36093 21.5389 3.3352 21.3333 3.33325H20.8913L15.3333 7.22459V3.33325H14V9.99992H24V8.66659H20.2473L24 6.03925V5.99992ZM8.66667 3.33325V7.22459L3.10933 3.33325H2.66667C2.3125 3.33366 1.96196 3.40461 1.63551 3.54196C1.30907 3.67932 1.01325 3.88033 0.765333 4.13325L7.23933 8.66659H4.91467L0.104667 5.29925C0.0387712 5.52711 0.00357173 5.76275 0 5.99992L0 6.03925L3.752 8.66659H0V9.99992H10V3.33325H8.66667Z" fill="#FEFDFF"/>
<path d="M14 9.99992V3.33325H10V9.99992H0V13.9999H10V20.6666H14V13.9999H24V9.99992H14Z" fill="#CF1B2B"/>
</g>
<defs>
<clipPath id="clip0_2350_335">
<rect width="24" height="24" fill="white"/>
</clipPath>
</defs>
</svg>
