<svg width="14" height="15" viewBox="0 0 14 15" fill="none" xmlns="http://www.w3.org/2000/svg">
<path d="M12.7744 4.34608L7.5436 12.588C7.44733 12.7389 7.29631 12.8476 7.12156 12.8918C6.94682 12.9359 6.76162 12.9122 6.604 12.8255C6.49946 12.7675 6.4112 12.6847 6.3472 12.5845L1.219 4.34252C1.07532 4.11154 0.999492 3.84553 1 3.57431C1.00648 3.17389 1.17323 2.79237 1.46367 2.51345C1.7541 2.23454 2.1445 2.08102 2.5492 2.08657H11.458C12.3082 2.08657 13 2.7503 13 3.57075C13 3.84384 12.922 4.11218 12.7738 4.34608M2.4778 4.07062L6.2938 9.89156V3.48348H2.8768C2.482 3.48348 2.305 3.74232 2.4784 4.07062M7.7056 9.89156L11.5216 4.07062C11.6974 3.74232 11.5174 3.48348 11.1226 3.48348H7.7056V9.89156Z" fill="#FEFDFF"/>
</svg>
