<svg width="12" height="11" viewBox="0 0 12 11" fill="none" xmlns="http://www.w3.org/2000/svg">
<path d="M11.7744 2.34608L6.5436 10.588C6.44733 10.7389 6.29631 10.8476 6.12156 10.8918C5.94682 10.9359 5.76162 10.9122 5.604 10.8255C5.49946 10.7675 5.4112 10.6847 5.3472 10.5845L0.219003 2.34252C0.0753242 2.11154 -0.000508258 1.84553 2.56379e-06 1.57431C0.00647887 1.17389 0.17323 0.792368 0.463666 0.513454C0.754102 0.23454 1.1445 0.081017 1.5492 0.0865714H10.458C11.3082 0.0865714 12 0.750296 12 1.57075C12 1.84384 11.922 2.11218 11.7738 2.34608M1.4778 2.07062L5.2938 7.89156V1.48348H1.8768C1.482 1.48348 1.305 1.74232 1.4784 2.07062M6.7056 7.89156L10.5216 2.07062C10.6974 1.74232 10.5174 1.48348 10.1226 1.48348H6.7056V7.89156Z" fill="#FEFDFF"/>
</svg>
