<svg width="40" height="40" viewBox="0 0 40 40" fill="none" xmlns="http://www.w3.org/2000/svg">
<circle cx="20" cy="20" r="19.5" fill="url(#paint0_linear_62_2282)"/>
<circle cx="20" cy="20" r="19.5" fill="url(#paint1_radial_62_2282)" fill-opacity="0.5"/>
<circle cx="20" cy="20" r="19.5" stroke="url(#paint2_linear_62_2282)"/>
<g clip-path="url(#clip0_62_2282)">
<path d="M28.6851 22.8913L31.9167 21.6943L31.9037 18.2189L28.658 17.0435C28.5259 16.6541 28.3677 16.2741 28.1846 15.906L29.6243 12.7719L27.1576 10.3236L24.0311 11.7872C23.6623 11.6041 23.2816 11.4463 22.8914 11.3148L21.6943 8.08325L18.219 8.09625L17.0436 11.3419C16.6543 11.4741 16.2742 11.6323 15.9061 11.8153L12.772 10.3756L10.3237 12.8413L11.7873 15.9699C11.6041 16.3387 11.4463 16.7194 11.3149 17.1096L8.08334 18.3056L8.09634 21.7809L11.342 22.9563C11.4741 23.3457 11.6323 23.7257 11.8154 24.0938L10.3757 27.2279L12.8413 29.6763L15.9689 28.2127C16.3377 28.3958 16.7184 28.5536 17.1086 28.685L18.3057 31.9166L21.781 31.9036L22.9564 28.6579C23.3458 28.5258 23.7258 28.3676 24.0939 28.1845L27.228 29.6243L29.6763 27.1586L28.2128 24.031C28.3959 23.6623 28.5537 23.2815 28.6851 22.8913ZM28.3742 26.9322L26.9929 28.3243L24.0744 26.9831L23.6097 27.216C23.2841 27.377 22.9483 27.5163 22.6043 27.6331L22.1147 27.8021L21.0205 30.8235L19.0597 30.8311L17.9438 27.8205L17.4498 27.6569C17.1064 27.5408 16.7712 27.4014 16.4467 27.2398L15.9808 27.0123L13.0688 28.3741L11.6757 26.9928L13.0179 24.0733L12.7839 23.6074C12.6224 23.2827 12.4827 22.9475 12.3658 22.6043L12.1978 22.1146L9.17534 21.0204L9.16992 19.0596L12.1783 17.9438L12.343 17.4498C12.459 17.106 12.598 16.7705 12.759 16.4455L12.9887 15.9797L11.6258 13.0677L13.0071 11.6756L15.9256 13.0168L16.3903 12.7838C16.7159 12.6228 17.0517 12.4835 17.3957 12.3668L17.8853 12.1978L18.9795 9.17634L20.9403 9.16875L22.0562 12.1793L22.5502 12.3429C22.8933 12.459 23.2281 12.5983 23.5523 12.76L24.0181 12.9886L26.9333 11.6258L28.3254 13.007L26.9832 15.9266L27.2172 16.3924C27.3786 16.7172 27.5183 17.0523 27.6353 17.3956L27.8033 17.8853L30.8258 18.9794L30.8312 20.9403L27.8228 22.0561L27.6581 22.5501C27.5421 22.8938 27.4031 23.2293 27.2421 23.5543L27.0124 24.0202L28.3742 26.9322ZM20 14.7999C18.9715 14.7999 17.9662 15.1049 17.111 15.6763C16.2559 16.2477 15.5894 17.0598 15.1958 18.01C14.8023 18.9601 14.6993 20.0057 14.8999 21.0144C15.1006 22.0231 15.5958 22.9496 16.323 23.6769C17.0503 24.4041 17.9768 24.8994 18.9855 25.1C19.9942 25.3006 21.0398 25.1977 21.99 24.8041C22.9401 24.4105 23.7523 23.744 24.3236 22.8889C24.895 22.0337 25.2 21.0284 25.2 19.9999C25.2 18.6208 24.6521 17.2982 23.677 16.323C22.7018 15.3478 21.3791 14.7999 20 14.7999ZM20 24.1166C19.1858 24.1166 18.3899 23.8751 17.7129 23.4228C17.0359 22.9705 16.5083 22.3275 16.1967 21.5753C15.8851 20.8231 15.8036 19.9954 15.9624 19.1968C16.1213 18.3982 16.5134 17.6647 17.0891 17.089C17.6648 16.5133 18.3983 16.1212 19.1969 15.9624C19.9954 15.8035 20.8232 15.885 21.5754 16.1966C22.3276 16.5082 22.9705 17.0358 23.4229 17.7128C23.8752 18.3898 24.1167 19.1857 24.1167 19.9999C24.1155 21.0914 23.6814 22.1378 22.9097 22.9096C22.1379 23.6814 21.0915 24.1154 20 24.1166Z" fill="url(#paint3_linear_62_2282)"/>
</g>
<g filter="url(#filter0_f_62_2282)">
<path d="M29 17.5C29 18.9587 28.0518 20.3576 26.364 21.3891C24.6761 22.4205 22.3869 23 20 23C17.6131 23 15.3239 22.4205 13.636 21.3891C11.9482 20.3576 11 18.9587 11 17.5L20 17.5H29Z" fill="#BABD1C"/>
</g>
<defs>
<filter id="filter0_f_62_2282" x="1" y="7.5" width="38" height="25.5" filterUnits="userSpaceOnUse" color-interpolation-filters="sRGB">
<feFlood flood-opacity="0" result="BackgroundImageFix"/>
<feBlend mode="normal" in="SourceGraphic" in2="BackgroundImageFix" result="shape"/>
<feGaussianBlur stdDeviation="5" result="effect1_foregroundBlur_62_2282"/>
</filter>
<linearGradient id="paint0_linear_62_2282" x1="19.8873" y1="-1.59393" x2="19.9385" y2="40.0001" gradientUnits="userSpaceOnUse">
<stop offset="0.018653" stop-color="#141414"/>
<stop offset="1"/>
</linearGradient>
<radialGradient id="paint1_radial_62_2282" cx="0" cy="0" r="1" gradientUnits="userSpaceOnUse" gradientTransform="translate(8.11268 -4.10453e-06) rotate(90) scale(40 16.2057)">
<stop stop-color="#888A35" stop-opacity="0.6"/>
<stop offset="1" stop-color="#010101" stop-opacity="0.2"/>
</radialGradient>
<linearGradient id="paint2_linear_62_2282" x1="0" y1="20" x2="40" y2="20" gradientUnits="userSpaceOnUse">
<stop stop-color="#010101"/>
<stop offset="0.2" stop-color="#71893F"/>
<stop offset="1" stop-color="#010101"/>
</linearGradient>
<linearGradient id="paint3_linear_62_2282" x1="20" y1="8.08325" x2="20" y2="31.9166" gradientUnits="userSpaceOnUse">
<stop stop-color="#A3B940"/>
<stop offset="1" stop-color="#39712A"/>
</linearGradient>
<clipPath id="clip0_62_2282">
<rect width="26" height="26" fill="white" transform="translate(7 7)"/>
</clipPath>
</defs>
</svg>
