<svg width="40" height="40" viewBox="0 0 40 40" fill="none" xmlns="http://www.w3.org/2000/svg">
<circle cx="20" cy="20" r="19.5" fill="url(#paint0_linear_50_69)"/>
<circle cx="20" cy="20" r="19.5" fill="url(#paint1_radial_50_69)" fill-opacity="0.5"/>
<circle cx="20" cy="20" r="19.5" stroke="url(#paint2_linear_50_69)"/>
<g clip-path="url(#clip0_50_69)">
<path d="M28.6852 22.8913L31.9168 21.6943L31.9038 18.2189L28.6582 17.0435C28.5261 16.6541 28.3679 16.2741 28.1847 15.906L29.6245 12.7719L27.1577 10.3236L24.0312 11.7872C23.6625 11.6041 23.2817 11.4463 22.8916 11.3148L21.6945 8.08325L18.2192 8.09625L17.0437 11.3419C16.6544 11.4741 16.2744 11.6323 15.9062 11.8153L12.7722 10.3756L10.3238 12.8413L11.7874 15.9699C11.6043 16.3387 11.4465 16.7194 11.3151 17.1096L8.0835 18.3056L8.0965 21.7809L11.3422 22.9563C11.4743 23.3457 11.6324 23.7257 11.8156 24.0938L10.3758 27.2279L12.8415 29.6763L15.9691 28.2127C16.3378 28.3958 16.7186 28.5536 17.1087 28.685L18.3058 31.9166L21.7812 31.9036L22.9566 28.6579C23.3459 28.5258 23.7259 28.3676 24.0941 28.1845L27.2282 29.6243L29.6765 27.1586L28.2129 24.031C28.396 23.6623 28.5538 23.2815 28.6852 22.8913ZM28.3743 26.9322L26.9931 28.3243L24.0746 26.9831L23.6098 27.216C23.2843 27.377 22.9484 27.5163 22.6045 27.6331L22.1148 27.8021L21.0207 30.8235L19.0598 30.8311L17.944 27.8205L17.45 27.6569C17.1066 27.5408 16.7714 27.4014 16.4468 27.2398L15.981 27.0123L13.069 28.3741L11.6758 26.9928L13.0181 24.0733L12.7841 23.6074C12.6226 23.2827 12.4829 22.9475 12.3659 22.6043L12.198 22.1146L9.1755 21.0204L9.17008 19.0596L12.1785 17.9438L12.3432 17.4498C12.4591 17.106 12.5981 16.7705 12.7592 16.4455L12.9888 15.9797L11.626 13.0677L13.0072 11.6756L15.9257 13.0168L16.3905 12.7838C16.7161 12.6228 17.0519 12.4835 17.3958 12.3668L17.8855 12.1978L18.9797 9.17634L20.9405 9.16875L22.0563 12.1793L22.5503 12.3429C22.8935 12.459 23.2283 12.5983 23.5524 12.76L24.0182 12.9886L26.9335 11.6258L28.3256 13.007L26.9833 15.9266L27.2173 16.3924C27.3788 16.7172 27.5185 17.0523 27.6355 17.3956L27.8034 17.8853L30.8259 18.9794L30.8313 20.9403L27.8229 22.0561L27.6582 22.5501C27.5423 22.8938 27.4033 23.2293 27.2422 23.5543L27.0126 24.0202L28.3743 26.9322ZM20.0002 14.7999C18.9717 14.7999 17.9663 15.1049 17.1112 15.6763C16.2561 16.2477 15.5896 17.0598 15.196 18.01C14.8024 18.9601 14.6994 20.0057 14.9001 21.0144C15.1007 22.0231 15.596 22.9496 16.3232 23.6769C17.0504 24.4041 17.977 24.8994 18.9857 25.1C19.9944 25.3006 21.0399 25.1977 21.9901 24.8041C22.9403 24.4105 23.7524 23.744 24.3238 22.8889C24.8952 22.0337 25.2002 21.0284 25.2002 19.9999C25.2002 18.6208 24.6523 17.2982 23.6771 16.323C22.7019 15.3478 21.3793 14.7999 20.0002 14.7999ZM20.0002 24.1166C19.186 24.1166 18.39 23.8751 17.7131 23.4228C17.0361 22.9705 16.5084 22.3275 16.1969 21.5753C15.8853 20.8231 15.8038 19.9954 15.9626 19.1968C16.1214 18.3982 16.5135 17.6647 17.0892 17.089C17.665 16.5133 18.3985 16.1212 19.197 15.9624C19.9956 15.8035 20.8233 15.885 21.5755 16.1966C22.3278 16.5082 22.9707 17.0358 23.423 17.7128C23.8754 18.3898 24.1168 19.1857 24.1168 19.9999C24.1157 21.0914 23.6816 22.1378 22.9098 22.9096C22.138 23.6814 21.0916 24.1154 20.0002 24.1166Z" fill="url(#paint3_linear_50_69)"/>
</g>
<g filter="url(#filter0_f_50_69)">
<path d="M29 17.5C29 18.9587 28.0518 20.3576 26.364 21.3891C24.6761 22.4205 22.3869 23 20 23C17.6131 23 15.3239 22.4205 13.636 21.3891C11.9482 20.3576 11 18.9587 11 17.5L20 17.5H29Z" fill="#BABD1C"/>
</g>
<defs>
<filter id="filter0_f_50_69" x="1" y="7.5" width="38" height="25.5" filterUnits="userSpaceOnUse" color-interpolation-filters="sRGB">
<feFlood flood-opacity="0" result="BackgroundImageFix"/>
<feBlend mode="normal" in="SourceGraphic" in2="BackgroundImageFix" result="shape"/>
<feGaussianBlur stdDeviation="5" result="effect1_foregroundBlur_50_69"/>
</filter>
<linearGradient id="paint0_linear_50_69" x1="19.8873" y1="-1.59393" x2="19.9385" y2="40.0001" gradientUnits="userSpaceOnUse">
<stop offset="0.018653" stop-color="#141414"/>
<stop offset="1"/>
</linearGradient>
<radialGradient id="paint1_radial_50_69" cx="0" cy="0" r="1" gradientUnits="userSpaceOnUse" gradientTransform="translate(20) rotate(90) scale(23.4483 9.49991)">
<stop stop-color="#888A35" stop-opacity="0.6"/>
<stop offset="1" stop-color="#010101" stop-opacity="0.2"/>
</radialGradient>
<linearGradient id="paint2_linear_50_69" x1="0" y1="20" x2="40" y2="20" gradientUnits="userSpaceOnUse">
<stop stop-color="#010101"/>
<stop offset="0.2" stop-color="#71893F"/>
<stop offset="1" stop-color="#010101"/>
</linearGradient>
<linearGradient id="paint3_linear_50_69" x1="20.0002" y1="8.08325" x2="20.0002" y2="31.9166" gradientUnits="userSpaceOnUse">
<stop stop-color="#A3B940"/>
<stop offset="1" stop-color="#39712A"/>
</linearGradient>
<clipPath id="clip0_50_69">
<rect width="26" height="26" fill="white" transform="translate(7 7)"/>
</clipPath>
</defs>
</svg>
