<svg width="40" height="40" viewBox="0 0 40 40" fill="none" xmlns="http://www.w3.org/2000/svg">
<circle cx="20" cy="20" r="19.5" fill="url(#paint0_linear_133_314)"/>
<circle cx="20" cy="20" r="19.5" fill="url(#paint1_radial_133_314)" fill-opacity="0.5"/>
<circle cx="20" cy="20" r="19.5" stroke="url(#paint2_linear_133_314)"/>
<g clip-path="url(#clip0_133_314)">
<path d="M28.6848 22.8913L31.9163 21.6943L31.9033 18.2189L28.6577 17.0435C28.5256 16.6541 28.3674 16.2741 28.1843 15.906L29.624 12.7719L27.1573 10.3236L24.0308 11.7872C23.662 11.6041 23.2812 11.4463 22.8911 11.3148L21.694 8.08325L18.2187 8.09625L17.0433 11.3419C16.6539 11.4741 16.2739 11.6323 15.9058 11.8153L12.7717 10.3756L10.3233 12.8413L11.7869 15.9699C11.6038 16.3387 11.446 16.7194 11.3146 17.1096L8.08301 18.3056L8.09601 21.7809L11.3417 22.9563C11.4738 23.3457 11.6319 23.7257 11.8151 24.0938L10.3753 27.2279L12.841 29.6763L15.9686 28.2127C16.3373 28.3958 16.7181 28.5536 17.1083 28.685L18.3053 31.9166L21.7807 31.9036L22.9561 28.6579C23.3454 28.5258 23.7254 28.3676 24.0936 28.1845L27.2277 29.6243L29.676 27.1586L28.2124 24.031C28.3955 23.6623 28.5533 23.2815 28.6848 22.8913ZM28.3738 26.9322L26.9926 28.3243L24.0741 26.9831L23.6093 27.216C23.2838 27.377 22.9479 27.5163 22.604 27.6331L22.1143 27.8021L21.0202 30.8235L19.0593 30.8311L17.9435 27.8205L17.4495 27.6569C17.1061 27.5408 16.7709 27.4014 16.4463 27.2398L15.9805 27.0123L13.0685 28.3741L11.6753 26.9928L13.0176 24.0733L12.7836 23.6074C12.6221 23.2827 12.4824 22.9475 12.3654 22.6043L12.1975 22.1146L9.17501 21.0204L9.16959 19.0596L12.178 17.9438L12.3427 17.4498C12.4586 17.106 12.5976 16.7705 12.7587 16.4455L12.9883 15.9797L11.6255 13.0677L13.0068 11.6756L15.9253 13.0168L16.39 12.7838C16.7156 12.6228 17.0514 12.4835 17.3953 12.3668L17.885 12.1978L18.9792 9.17634L20.94 9.16875L22.0558 12.1793L22.5498 12.3429C22.893 12.459 23.2278 12.5983 23.5519 12.76L24.0178 12.9886L26.933 11.6258L28.3251 13.007L26.9828 15.9266L27.2168 16.3924C27.3783 16.7172 27.518 17.0523 27.635 17.3956L27.8029 17.8853L30.8254 18.9794L30.8308 20.9403L27.8224 22.0561L27.6578 22.5501C27.5418 22.8938 27.4028 23.2293 27.2418 23.5543L27.0121 24.0202L28.3738 26.9322ZM19.9997 14.7999C18.9712 14.7999 17.9658 15.1049 17.1107 15.6763C16.2556 16.2477 15.5891 17.0598 15.1955 18.01C14.8019 18.9601 14.6989 20.0057 14.8996 21.0144C15.1002 22.0231 15.5955 22.9496 16.3227 23.6769C17.05 24.4041 17.9765 24.8994 18.9852 25.1C19.9939 25.3006 21.0395 25.1977 21.9896 24.8041C22.9398 24.4105 23.7519 23.744 24.3233 22.8889C24.8947 22.0337 25.1997 21.0284 25.1997 19.9999C25.1997 18.6208 24.6518 17.2982 23.6766 16.323C22.7014 15.3478 21.3788 14.7999 19.9997 14.7999ZM19.9997 24.1166C19.1855 24.1166 18.3896 23.8751 17.7126 23.4228C17.0356 22.9705 16.508 22.3275 16.1964 21.5753C15.8848 20.8231 15.8033 19.9954 15.9621 19.1968C16.121 18.3982 16.513 17.6647 17.0888 17.089C17.6645 16.5133 18.398 16.1212 19.1966 15.9624C19.9951 15.8035 20.8228 15.885 21.5751 16.1966C22.3273 16.5082 22.9702 17.0358 23.4226 17.7128C23.8749 18.3898 24.1163 19.1857 24.1163 19.9999C24.1152 21.0914 23.6811 22.1378 22.9093 22.9096C22.1376 23.6814 21.0911 24.1154 19.9997 24.1166Z" fill="url(#paint3_linear_133_314)"/>
</g>
<g filter="url(#filter0_f_133_314)">
<path d="M29 17.5C29 18.9587 28.0518 20.3576 26.364 21.3891C24.6761 22.4205 22.3869 23 20 23C17.6131 23 15.3239 22.4205 13.636 21.3891C11.9482 20.3576 11 18.9587 11 17.5L20 17.5H29Z" fill="#BABD1C"/>
</g>
<defs>
<filter id="filter0_f_133_314" x="1" y="7.5" width="38" height="25.5" filterUnits="userSpaceOnUse" color-interpolation-filters="sRGB">
<feFlood flood-opacity="0" result="BackgroundImageFix"/>
<feBlend mode="normal" in="SourceGraphic" in2="BackgroundImageFix" result="shape"/>
<feGaussianBlur stdDeviation="5" result="effect1_foregroundBlur_133_314"/>
</filter>
<linearGradient id="paint0_linear_133_314" x1="19.8873" y1="-1.59393" x2="19.9385" y2="40.0001" gradientUnits="userSpaceOnUse">
<stop offset="0.018653" stop-color="#141414"/>
<stop offset="1"/>
</linearGradient>
<radialGradient id="paint1_radial_133_314" cx="0" cy="0" r="1" gradientUnits="userSpaceOnUse" gradientTransform="translate(8.11268 -4.10453e-06) rotate(90) scale(40 16.2057)">
<stop stop-color="#888A35" stop-opacity="0.6"/>
<stop offset="1" stop-color="#010101" stop-opacity="0.2"/>
</radialGradient>
<linearGradient id="paint2_linear_133_314" x1="0" y1="20" x2="40" y2="20" gradientUnits="userSpaceOnUse">
<stop stop-color="#010101"/>
<stop offset="0.2" stop-color="#71893F"/>
<stop offset="1" stop-color="#010101"/>
</linearGradient>
<linearGradient id="paint3_linear_133_314" x1="19.9997" y1="8.08325" x2="19.9997" y2="31.9166" gradientUnits="userSpaceOnUse">
<stop stop-color="#A3B940"/>
<stop offset="1" stop-color="#39712A"/>
</linearGradient>
<clipPath id="clip0_133_314">
<rect width="26" height="26" fill="white" transform="translate(7 7)"/>
</clipPath>
</defs>
</svg>
